pedal_clip_forces_x_-0.1_y_-0.06.mot
version=1
nRows=208
nColumns=4
inDegrees=yes
endheader
time	PedalClip_calcn_r_Fx	PedalClip_calcn_r_Fy	PedalClip_calcn_r_Fz
0.42567702	-91.5952171046749	90.3562079778383	0
0.42571736	-91.3969169944763	89.577247517422	0
0.42577254	-91.2000432401447	88.8013965908228	0
0.42604841	-91.0045834421602	88.028636306767	0
0.42629492	-90.8105213521227	87.2589309150162	0
0.42686186	-90.6178167512912	86.492154644691	0
0.42691855	-90.4264343925153	85.7282108956763	0
0.42699042	-90.2363599190012	84.9670845224904	0
0.42730228	-90.0475839970172	84.2087932264953	0
0.42754445	-89.860080671132	83.4532862386425	0
0.42819808	-89.6738138687257	82.7004623304661	0
0.42826344	-89.4887612347158	81.9502630026517	0
0.4283288	-89.304921617506	81.2026905994587	0
0.42841762	-89.122292891268	80.457751228156	0
0.4288617	-88.9408463769397	79.7153720325721	0
0.42923448	-88.7605335455171	78.9754162459993	0
0.42927176	-88.5813016661661	78.237744482179	0
0.42931938	-88.4031042305394	77.5022749548324	0
0.42955747	-88.2259000974657	76.7689422270371	0
0.42977956	-88.0496550578121	76.0376754557392	0
0.430413	-87.8743446663491	75.3084213138008	0
0.43052924	-87.6999578884155	74.5811461967195	0
0.43083504	-87.5264853958297	73.8558190238315	0
0.43128361	-87.3539087921331	73.1324036031502	0
0.43132846	-87.1822071253478	72.4108201442651	0
0.43139991	-87.0113655607289	71.6909387545796	0
0.43175713	-86.8413748835944	70.9726222589001	0
0.43233274	-86.6722206257025	70.2557608747641	0
0.4323903	-86.5038971827806	69.5402647674573	0
0.43246648	-86.3364119089656	68.8260749666028	0
0.43284741	-86.1697712394977	68.1131436054816	0
0.4332881	-86.0039924993452	67.4014301286193	0
0.43333217	-85.8391098471447	66.6910037233726	0
0.433418	-85.6751643954986	65.9819816983064	0
0.43381529	-85.5121864184021	65.2744513098679	0
0.43423261	-85.3501741849499	64.5684062930203	0
0.43427434	-85.1891049258389	63.863757120989	0
0.43434266	-85.0289642611993	63.1604346622533	0
0.43468425	-84.8697633911318	62.4584899531314	0
0.43515437	-84.7115029560871	61.7579457142746	0
0.43553744	-84.5541721066604	61.0588243712991	0
0.43557575	-84.3977666055911	60.3611835098648	0
0.43562346	-84.2423034395945	59.6651537273711	0
0.43586201	-84.0878057545	58.9709491306966	0
0.43609028	-83.9343003717796	58.2787970890164	0
0.43673641	-83.781800268003	57.5888398326834	0
0.43686183	-83.6303194300826	56.9012243852294	0
0.43721297	-83.4798849112953	56.2161358553891	0
0.43764274	-83.3305263257666	55.5337068193532	0
0.43768571	-83.1822521762621	54.8539727639356	0
0.43774976	-83.0350617923363	54.1769176544092	0
0.43807	-82.8889699674993	53.5025512953755	0
0.43835102	-82.7440016307578	52.8309233032448	0
0.43888766	-82.6001858265591	52.1620831564344	0
0.43894133	-82.4575312001223	51.4960116747967	0
0.43903563	-82.3160491821518	50.832711168465	0
0.43940512	-82.1757669673305	50.1722698817855	0
0.44008066	-82.0367096186232	49.5148094647659	0
0.44014821	-81.8988973006643	48.860415769159	0
0.44021577	-81.7623205792113	48.2090616761513	0
0.44032201	-81.626961334718	47.5606989840238	0
0.44077086	-81.4928127494746	46.9153290352283	0
0.44116542	-81.3598747870637	46.2729535328429	0
0.44120488	-81.2281366597311	45.6335222400898	0
0.44125518	-81.0975958787284	44.9970374593392	0
0.4415067	-80.968263673098	44.3635662480613	0
0.44174328	-80.8401748220314	43.7332618313194	0
0.44240124	-80.7133631320616	43.1062913968506	0
0.44251506	-80.5878582499636	42.4827435954634	0
0.4428292	-80.4636749431822	41.8626011437072	0
0.44330809	-80.3408076487892	41.2457272506268	0
0.44335598	-80.2192150919347	40.631890858058	0
0.44343839	-80.0988422744887	40.020862402514	0
0.44385046	-79.9796388176268	39.412461975774	0
0.4442907	-79.8615763870695	38.8066073453579	0
0.44433473	-79.7446233772431	38.2032402065308	0
0.44443517	-79.6287254076332	37.6022207663316	0
0.44482675	-79.5138159326348	37.0033578472533	0
0.44530981	-79.3998443188068	36.406544549711	0
0.44540957	-79.2867652391389	35.8117042048197	0
0.44560819	-79.1745190063203	35.2187121424759	0
0.44580691	-79.0630470210511	34.6274289620087	0
0.44620077	-78.9523163403728	34.0377914600958	0
0.4466216	-78.8423096545775	33.4498283519324	0
0.44666368	-78.7330189973202	32.86357394663	0
0.44673877	-78.624447665209	32.2790254641978	0
0.44711419	-78.5166243123703	31.6962250548992	0
0.44763948	-78.4095769167149	31.115219931424	0
0.44803611	-78.3033035406657	30.5359360541247	0
0.44807577	-78.1977775337977	29.9581856323392	0
0.44812506	-78.092975643179	29.3817887358347	0
0.44837151	-77.988896929592	28.8066906861323	0
0.4486323	-77.8855358393559	28.2328948830827	0
0.44929387	-77.7828698384111	27.6603485896755	0
0.44936003	-77.6808598001376	27.0889129819954	0
0.4494588	-77.5794589831253	26.5184111365861	0
0.44995268	-77.4786283730913	25.9487000416497	0
0.45034447	-77.3783505511322	25.3797115158644	0
0.45038364	-77.2786239264222	24.8114062189879	0
0.45044487	-77.1794728950941	24.243847970606	0
0.450751	-77.0809266407748	23.6771169198683	0
0.45101955	-76.9830137185331	23.1112266876004	0
0.45169176	-76.885757472659	22.5461413880271	0
0.45175898	-76.7891838754262	21.9818161753009	0
0.4518262	-76.6933037815503	21.4182120997048	0
0.45195231	-76.5981028712447	20.8552768718727	0
0.45231871	-76.5035582238058	20.2929666378612	0
0.45283727	-76.4096509166373	19.7312397287118	0
0.45288912	-76.3163863842065	19.1701390461026	0
0.45299013	-76.2237664041334	18.6097071234579	0
0.45349514	-76.1317855829813	18.0499469188935	0
0.45389864	-76.0404411429187	17.4908019894101	0
0.45393899	-75.9497331844854	16.9321220894586	0
0.45398988	-75.8596556384217	16.3737436214177	0
0.45424429	-75.7702009950655	15.8155194120116	0
0.45449086	-75.6813635550136	15.2573024058056	0
0.4551862	-75.5931235082378	14.6988994458602	0
0.4554011	-75.5054317575417	14.1400703442361	0
0.4558552	-75.4182296893515	13.5805934369964	0
0.45628599	-75.3314648721779	13.0202937878334	0
0.45632907	-75.2451040879456	12.4590860849703	0
0.45639554	-75.1591326888354	11.8969775581804	0
0.45672786	-75.073513666834	11.3339743335209	0
0.45706422	-74.9881947262413	10.7700258538686	0
0.45757566	-74.9031318182694	10.2050473942535	0
0.45762681	-74.8183175822448	9.63907800558444	0
0.45779766	-74.7337407517259	9.07217638377264	0
0.45827886	-74.6493820051894	8.50431414509331	0
0.45870676	-74.5652300779806	7.93538554373252	0
0.45874955	-74.481308014457	7.36533753721959	0
0.45880712	-74.3976415076266	6.79414620997396	0
0.45909497	-74.3142394092739	6.2217307722312	0
0.45934297	-74.2311120654843	5.64803195800644	0
0.46006478	-74.1482928667398	5.07310870263791	0
0.46028514	-74.0658477519789	4.49719656064794	0
0.46074923	-73.9838360636262	3.92063581480935	0
0.46119054	-73.9023155590118	3.3437478120646	0
0.46123467	-73.8213449896715	2.76682654127007	0
0.46130688	-73.740990567167	2.19016262933962	0
0.46166792	-73.6613129751975	1.61401667865893	0
0.46206328	-73.5823439302756	1.03852599236793	0
0.46254118	-73.5041011819935	0.463787299960515	0
0.46258897	-73.4265838175864	-0.110174060502667	0
0.46269277	-73.349790020995	-0.683327599765275	0
0.46310625	-73.2737190489612	-1.25566525435285	0
0.46334021	-73.1983616292855	-1.82723061187448	0
0.46369069	-73.1236887684374	-2.39808720972339	0
0.46404117	-73.0496746242935	-2.96822421222039	0
0.46453101	-72.9763113047909	-3.53761812317183	0
0.46515317	-72.9035899278489	-4.10626106695495	0
0.46542004	-72.8314954234905	-4.67415063375024	0
0.46583343	-72.7599955795099	-5.24132665009826	0
0.46640871	-72.6890791188293	-5.80776437526589	0
0.46689862	-72.6187603232242	-6.37339007978728	0
0.46694761	-72.5490349685598	-6.93822113061435	0
0.46701844	-72.4798954256266	-7.50232744919206	0
0.4673726	-72.4113462335909	-8.06575020598912	0
0.46781892	-72.3434012442625	-8.62851392886326	0
0.46826523	-72.2760959800071	-9.19060519089031	0
0.46871154	-72.2094681816543	-9.7520475770244	0
0.46902312	-72.1435504528618	-10.3129345742905	0
0.46964562	-72.0783778506623	-10.8733875902614	0
0.47026812	-72.0140008633584	-11.4334713156019	0
0.47033037	-71.9504452001554	-11.9932827021607	0
0.47044397	-71.8877298954461	-12.5529392330478	0
0.47101198	-71.8258708904223	-13.1125707820488	0
0.47106878	-71.7648784197385	-13.6723008656878	0
0.47115239	-71.7047572507056	-14.2322007222865	0
0.47157044	-71.6455078619296	-14.7922997942518	0
0.47199499	-71.5871430486186	-15.3525041355452	0
0.47256257	-71.52967788732	-15.9126642238978	0
0.47261933	-71.4731238212482	-16.4726838524486	0
0.47272499	-71.4174835108225	-17.0325007698609	0
0.47323206	-71.3627377790072	-17.592095277522	0
0.47371737	-71.308878173975	-18.1514545800924	0
0.4737659	-71.2559132839674	-18.7104948768466	0
0.47385675	-71.2038328351006	-19.269142153114	0
0.47429642	-71.1526207242229	-19.8274261901525	0
0.4748444	-71.1022667609171	-20.3854259431437	0
0.47530757	-71.0527743738311	-20.9431936860164	0
0.47538543	-71.0041385373965	-21.5007828992336	0
0.47551783	-70.95634095693	-22.0582780336599	0
0.47601092	-70.909348100066	-22.6158100576455	0
0.47642839	-70.8631173476033	-23.1735239631474	0
0.47684587	-70.8176023431943	-23.7315540459549	0
0.4772877	-70.7727619971507	-24.28998010456	0
0.47784152	-70.7285691093739	-24.8488032220871	0
0.4783356	-70.6850169362195	-25.4079348706832	0
0.47882969	-70.6421008216467	-25.967251682258	0
0.47932378	-70.5998139980988	-26.5266444581279	0
0.47981786	-70.5581491723357	-27.0860392613616	0
0.48031195	-70.517111982769	-27.6453379209874	0
0.48080603	-70.4767205495283	-28.204393078227	0
0.48130012	-70.4369917722431	-28.7630281408527	0
0.48189451	-70.3979339294317	-29.3210794032211	0
0.48195395	-70.3595428959703	-29.8784415583586	0
0.48204199	-70.3218074018742	-30.4350402161863	0
0.48248217	-70.2847170274135	-30.9907854192338	0
0.4829266	-70.2482507537743	-31.5456212017103	0
0.48337433	-70.2123835153353	-32.0994370063978	0
0.48382207	-70.1770957990333	-32.6519969180481	0
0.48421614	-70.1423807760789	-33.2029824570949	0
0.48476214	-70.1082510450651	-33.7519502530258	0
0.48530815	-70.0747421635033	-34.2984200361227	0
0.48570504	-70.0418861701218	-34.8420224525177	0
0.48625293	-70.0097004656006	-35.382573893926	0
0.48680083	-69.9781921254654	-35.9199824992935	0
0.48685561	-69.9473590861288	-36.4542084630987	0
